<svg width="823" height="148" class="js-calendar-graph-svg" xmlns="http://www.w3.org/2000/svg"><style>
    :root {
        --c0: rgba(27, 31, 35, 0.06);
        --c1: #9be9a8;
        --c2: #40c463;
        --c3: #30a14e;
        --c4: #216e39;
    }
    .o, .o[data-level="0"] {
        fill: var(--c0);
        shape-rendering: geometricPrecision;
        outline: 1px solid var(--c0);
        outline-offset: -1px
    }
    .o[data-level="1"] {
        outline: 1px solid var(--c0)
    }
    .o[data-level="2"] {
        outline: 1px solid var(--c0)
    }
    .o[data-level="3"] {
        outline: 1px solid var(--c0)
    }
    .o[data-level="4"] {
        outline: 1px solid var(--c0)
    }
    .c {
        animation-iteration-count: infinite;
        animation-duration: 5s;
    }</style>
<g transform="translate(15, 20)">
<g transform="translate(0, 0)">
<rect width="11" height="11" x="16" y="0" data-level="0" rx="2" ry="2" class="o"></rect>
<rect width="11" height="11" x="16" y="15" data-level="0" rx="2" ry="2" class="o"></rect>
<rect width="11" height="11" x="16" y="30" data-level="0" rx="2" ry="2" class="o"></rect>
<rect width="11" height="11" x="16" y="45" data-level="0" rx="2" ry="2" class="o"></rect>
<rect width="11" height="11" x="16" y="60" data-level="0" rx="2" ry="2" class="o"></rect>
<rect width="11" height="11" x="16" y="75" data-level="0" rx="2" ry="2" class="o"></rect>
<rect width="11" height="11" x="16" y="90" data-level="0" rx="2" ry="2" class="o"></rect>
</g>
<g transform="translate(16, 0)">
<rect width="11" height="11" x="15" y="0" data-level="0" rx="2" ry="2" class="o"></rect>
<rect width="11" height="11" x="15" y="15" data-level="0" rx="2" ry="2" class="o"></rect>
<rect width="11" height="11" x="15" y="30" data-level="0" rx="2" ry="2" class="o"></rect>
<rect width="11" height="11" x="15" y="45" data-level="0" rx="2" ry="2" class="o"></rect>
<rect width="11" height="11" x="15" y="60" data-level="0" rx="2" ry="2" class="o"></rect>
<rect width="11" height="11" x="15" y="75" data-level="0" rx="2" ry="2" class="o"></rect>
<rect width="11" height="11" x="15" y="90" data-level="0" rx="2" ry="2" class="o"></rect>
</g>
<g transform="translate(32, 0)">
<rect width="11" height="11" x="14" y="0" data-level="0" rx="2" ry="2" class="o"></rect>
<rect width="11" height="11" x="14" y="15" data-level="0" rx="2" ry="2" class="o"></rect>
<rect width="11" height="11" x="14" y="30" data-level="0" rx="2" ry="2" class="o"></rect>
<rect width="11" height="11" x="14" y="45" data-level="0" rx="2" ry="2" class="o"></rect>
<rect width="11" height="11" x="14" y="60" data-level="0" rx="2" ry="2" class="o"></rect>
<rect width="11" height="11" x="14" y="75" data-level="0" rx="2" ry="2" class="o"></rect>
<rect width="11" height="11" x="14" y="90" data-level="0" rx="2" ry="2" class="o"></rect>
</g>
<g transform="translate(48, 0)">
<rect width="11" height="11" x="13" y="0" data-level="0" rx="2" ry="2" class="o"></rect>
<rect width="11" height="11" x="13" y="15" data-level="0" rx="2" ry="2" class="o"></rect>
<rect width="11" height="11" x="13" y="30" data-level="0" rx="2" ry="2" class="o"></rect>
<rect width="11" height="11" x="13" y="45" data-level="0" rx="2" ry="2" class="o"></rect>
<rect width="11" height="11" x="13" y="60" data-level="0" rx="2" ry="2" class="o"></rect>
<rect width="11" height="11" x="13" y="75" data-level="0" rx="2" ry="2" class="o"></rect>
<rect width="11" height="11" x="13" y="90" data-level="0" rx="2" ry="2" class="o"></rect>
</g>
<g transform="translate(64, 0)">
<rect width="11" height="11" x="12" y="0" data-level="0" rx="2" ry="2" class="o"></rect>
<rect width="11" height="11" x="12" y="15" data-level="0" rx="2" ry="2" class="o"></rect>
<rect width="11" height="11" x="12" y="30" data-level="0" rx="2" ry="2" class="o"></rect>
<rect width="11" height="11" x="12" y="45" data-level="0" rx="2" ry="2" class="o"></rect>
<rect width="11" height="11" x="12" y="60" data-level="0" rx="2" ry="2" class="o"></rect>
<rect width="11" height="11" x="12" y="75" data-level="0" rx="2" ry="2" class="o"></rect>
<rect width="11" height="11" x="12" y="90" data-level="0" rx="2" ry="2" class="o"></rect>
</g>
<g transform="translate(80, 0)">
<rect width="11" height="11" x="11" y="0" data-level="0" rx="2" ry="2" class="o"></rect>
<rect width="11" height="11" x="11" y="15" data-level="0" rx="2" ry="2" class="o"></rect>
<rect width="11" height="11" x="11" y="30" data-level="0" rx="2" ry="2" class="o"></rect>
<rect width="11" height="11" x="11" y="45" data-level="0" rx="2" ry="2" class="o"></rect>
<rect width="11" height="11" x="11" y="60" data-level="0" rx="2" ry="2" class="o"></rect>
<rect width="11" height="11" x="11" y="75" data-level="0" rx="2" ry="2" class="o"></rect>
<rect width="11" height="11" x="11" y="90" data-level="0" rx="2" ry="2" class="o"></rect>
</g>
<g transform="translate(96, 0)">
<rect width="11" height="11" x="10" y="0" data-level="0" rx="2" ry="2" class="o"></rect>
<rect width="11" height="11" x="10" y="15" data-level="0" rx="2" ry="2" class="o"></rect>
<rect width="11" height="11" x="10" y="30" data-level="0" rx="2" ry="2" class="o"></rect>
<rect width="11" height="11" x="10" y="45" data-level="0" rx="2" ry="2" class="o"></rect>
<rect width="11" height="11" x="10" y="60" data-level="0" rx="2" ry="2" class="o"></rect>
<rect width="11" height="11" x="10" y="75" data-level="0" rx="2" ry="2" class="o"></rect>
<rect width="11" height="11" x="10" y="90" data-level="0" rx="2" ry="2" class="o"></rect>
</g>
<g transform="translate(112, 0)">
<rect width="11" height="11" x="9" y="0" data-level="0" rx="2" ry="2" class="o"></rect>
<rect width="11" height="11" x="9" y="15" data-level="0" rx="2" ry="2" class="o"></rect>
<rect width="11" height="11" x="9" y="30" data-level="0" rx="2" ry="2" class="o"></rect>
<rect width="11" height="11" x="9" y="45" data-level="0" rx="2" ry="2" class="o"></rect>
<rect width="11" height="11" x="9" y="60" data-level="0" rx="2" ry="2" class="o"></rect>
<rect width="11" height="11" x="9" y="75" data-level="0" rx="2" ry="2" class="o"></rect>
<rect width="11" height="11" x="9" y="90" data-level="0" rx="2" ry="2" class="o"></rect>
</g>
<g transform="translate(128, 0)">
<rect width="11" height="11" x="8" y="0" data-level="0" rx="2" ry="2" class="o"></rect>
<rect width="11" height="11" x="8" y="15" data-level="0" rx="2" ry="2" class="o"></rect>
<rect width="11" height="11" x="8" y="30" data-level="0" rx="2" ry="2" class="o"></rect>
<rect width="11" height="11" x="8" y="45" data-level="0" rx="2" ry="2" class="o"></rect>
<rect width="11" height="11" x="8" y="60" data-level="0" rx="2" ry="2" class="o"></rect>
<rect width="11" height="11" x="8" y="75" data-level="0" rx="2" ry="2" class="o"></rect>
<rect width="11" height="11" x="8" y="90" data-level="0" rx="2" ry="2" class="o"></rect>
</g>
<g transform="translate(144, 0)">
<rect width="11" height="11" x="7" y="0" data-level="0" rx="2" ry="2" class="o"></rect>
<rect width="11" height="11" x="7" y="15" data-level="0" rx="2" ry="2" class="o"></rect>
<rect width="11" height="11" x="7" y="30" data-level="0" rx="2" ry="2" class="o"></rect>
<rect width="11" height="11" x="7" y="45" data-level="0" rx="2" ry="2" class="o"></rect>
<rect width="11" height="11" x="7" y="60" data-level="0" rx="2" ry="2" class="o"></rect>
<rect width="11" height="11" x="7" y="75" data-level="0" rx="2" ry="2" class="o"></rect>
<rect width="11" height="11" x="7" y="90" data-level="0" rx="2" ry="2" class="o"></rect>
</g>
<g transform="translate(160, 0)">
<rect width="11" height="11" x="6" y="0" data-level="0" rx="2" ry="2" class="o"></rect>
<rect width="11" height="11" x="6" y="15" data-level="0" rx="2" ry="2" class="o"></rect>
<rect width="11" height="11" x="6" y="30" data-level="0" rx="2" ry="2" class="o"></rect>
<rect width="11" height="11" x="6" y="45" data-level="0" rx="2" ry="2" class="o"></rect>
<rect width="11" height="11" x="6" y="60" data-level="0" rx="2" ry="2" class="o"></rect>
<rect width="11" height="11" x="6" y="75" data-level="0" rx="2" ry="2" class="o"></rect>
<rect width="11" height="11" x="6" y="90" data-level="0" rx="2" ry="2" class="o"></rect>
</g>
<g transform="translate(176, 0)">
<rect width="11" height="11" x="5" y="0" data-level="0" rx="2" ry="2" class="o"></rect>
<rect width="11" height="11" x="5" y="15" data-level="0" rx="2" ry="2" class="o"></rect>
<rect width="11" height="11" x="5" y="30" data-level="0" rx="2" ry="2" class="o"></rect>
<rect width="11" height="11" x="5" y="45" data-level="0" rx="2" ry="2" class="o"></rect>
<rect width="11" height="11" x="5" y="60" data-level="0" rx="2" ry="2" class="o"></rect>
<rect width="11" height="11" x="5" y="75" data-level="0" rx="2" ry="2" class="o"></rect>
<rect width="11" height="11" x="5" y="90" data-level="0" rx="2" ry="2" class="o"></rect>
</g>
<g transform="translate(192, 0)">
<rect width="11" height="11" x="4" y="0" data-level="0" rx="2" ry="2" class="o"></rect>
<rect width="11" height="11" x="4" y="15" data-level="0" rx="2" ry="2" class="o"></rect>
<rect width="11" height="11" x="4" y="30" data-level="0" rx="2" ry="2" class="o"></rect>
<rect width="11" height="11" x="4" y="45" data-level="0" rx="2" ry="2" class="o"></rect>
<rect width="11" height="11" x="4" y="60" data-level="0" rx="2" ry="2" class="o"></rect>
<rect width="11" height="11" x="4" y="75" data-level="0" rx="2" ry="2" class="o"></rect>
<rect width="11" height="11" x="4" y="90" data-level="0" rx="2" ry="2" class="o"></rect>
</g>
<g transform="translate(208, 0)">
<rect width="11" height="11" x="3" y="0" data-level="0" rx="2" ry="2" class="o"></rect>
<rect width="11" height="11" x="3" y="15" data-level="0" rx="2" ry="2" class="o"></rect>
<rect width="11" height="11" x="3" y="30" data-level="0" rx="2" ry="2" class="o"></rect>
<rect width="11" height="11" x="3" y="45" data-level="0" rx="2" ry="2" class="o"></rect>
<rect width="11" height="11" x="3" y="60" data-level="0" rx="2" ry="2" class="o"></rect>
<rect width="11" height="11" x="3" y="75" data-level="0" rx="2" ry="2" class="o"></rect>
<rect width="11" height="11" x="3" y="90" data-level="0" rx="2" ry="2" class="o"></rect>
</g>
<g transform="translate(224, 0)">
<rect width="11" height="11" x="2" y="0" data-level="0" rx="2" ry="2" class="o"></rect>
<rect width="11" height="11" x="2" y="15" data-level="0" rx="2" ry="2" class="o"></rect>
<rect width="11" height="11" x="2" y="30" data-level="0" rx="2" ry="2" class="o"></rect>
<rect width="11" height="11" x="2" y="45" data-level="0" rx="2" ry="2" class="o"></rect>
<rect width="11" height="11" x="2" y="60" data-level="0" rx="2" ry="2" class="o"></rect>
<rect width="11" height="11" x="2" y="75" data-level="0" rx="2" ry="2" class="o"></rect>
<rect width="11" height="11" x="2" y="90" data-level="0" rx="2" ry="2" class="o"></rect>
</g>
<g transform="translate(240, 0)">
<rect width="11" height="11" x="1" y="0" data-level="0" rx="2" ry="2" class="o"></rect>
<rect width="11" height="11" x="1" y="15" data-level="0" rx="2" ry="2" class="o"></rect>
<rect width="11" height="11" x="1" y="30" data-level="0" rx="2" ry="2" class="o"></rect>
<rect width="11" height="11" x="1" y="45" data-level="0" rx="2" ry="2" class="o"></rect>
<rect width="11" height="11" x="1" y="60" data-level="0" rx="2" ry="2" class="o"></rect>
<rect width="11" height="11" x="1" y="75" data-level="0" rx="2" ry="2" class="o"></rect>
<rect width="11" height="11" x="1" y="90" data-level="0" rx="2" ry="2" class="o"></rect>
</g>
<g transform="translate(256, 0)">
<rect width="11" height="11" x="0" y="0" data-level="0" rx="2" ry="2" class="o"></rect>
<rect width="11" height="11" x="0" y="15" data-level="0" rx="2" ry="2" class="o"></rect>
<rect width="11" height="11" x="0" y="30" data-level="0" rx="2" ry="2" class="o"></rect>
<rect width="11" height="11" x="0" y="45" data-level="0" rx="2" ry="2" class="o"></rect>
<rect width="11" height="11" x="0" y="60" data-level="0" rx="2" ry="2" class="o"></rect>
<rect width="11" height="11" x="0" y="75" data-level="0" rx="2" ry="2" class="o"></rect>
<rect width="11" height="11" x="0" y="90" data-level="0" rx="2" ry="2" class="o"></rect>
</g>
<g transform="translate(272, 0)">
<rect width="11" height="11" x="-1" y="0" data-level="0" rx="2" ry="2" class="o"></rect>
<rect width="11" height="11" x="-1" y="15" data-level="0" rx="2" ry="2" class="o"></rect>
<rect width="11" height="11" x="-1" y="30" data-level="0" rx="2" ry="2" class="o"></rect>
<rect width="11" height="11" x="-1" y="45" data-level="0" rx="2" ry="2" class="o"></rect>
<rect width="11" height="11" x="-1" y="60" data-level="0" rx="2" ry="2" class="o"></rect>
<rect width="11" height="11" x="-1" y="75" data-level="0" rx="2" ry="2" class="o"></rect>
<rect width="11" height="11" x="-1" y="90" data-level="0" rx="2" ry="2" class="o"></rect>
</g>
<g transform="translate(288, 0)">
<rect width="11" height="11" x="-2" y="0" data-level="0" rx="2" ry="2" class="o"></rect>
<rect width="11" height="11" x="-2" y="15" data-level="0" rx="2" ry="2" class="o"></rect>
<rect width="11" height="11" x="-2" y="30" data-level="0" rx="2" ry="2" class="o"></rect>
<rect width="11" height="11" x="-2" y="45" data-level="0" rx="2" ry="2" class="o"></rect>
<rect width="11" height="11" x="-2" y="60" data-level="0" rx="2" ry="2" class="o"></rect>
<rect width="11" height="11" x="-2" y="75" data-level="0" rx="2" ry="2" class="o"></rect>
<rect width="11" height="11" x="-2" y="90" data-level="0" rx="2" ry="2" class="o"></rect>
</g>
<g transform="translate(304, 0)">
<rect width="11" height="11" x="-3" y="0" data-level="0" rx="2" ry="2" class="o"></rect>
<rect width="11" height="11" x="-3" y="15" data-level="0" rx="2" ry="2" class="o"></rect>
<rect width="11" height="11" x="-3" y="30" data-level="0" rx="2" ry="2" class="o"></rect>
<rect width="11" height="11" x="-3" y="45" data-level="0" rx="2" ry="2" class="o"></rect>
<rect width="11" height="11" x="-3" y="60" data-level="0" rx="2" ry="2" class="o"></rect>
<rect width="11" height="11" x="-3" y="75" data-level="0" rx="2" ry="2" class="o"></rect>
<rect width="11" height="11" x="-3" y="90" data-level="0" rx="2" ry="2" class="o"></rect>
</g>
<g transform="translate(320, 0)">
<rect width="11" height="11" x="-4" y="0" data-level="0" rx="2" ry="2" class="o"></rect>
<rect width="11" height="11" x="-4" y="15" data-level="0" rx="2" ry="2" class="o"></rect>
<rect width="11" height="11" x="-4" y="30" data-level="0" rx="2" ry="2" class="o"></rect>
<rect width="11" height="11" x="-4" y="45" data-level="0" rx="2" ry="2" class="o"></rect>
<rect width="11" height="11" x="-4" y="60" data-level="0" rx="2" ry="2" class="o"></rect>
<rect width="11" height="11" x="-4" y="75" data-level="0" rx="2" ry="2" class="o"></rect>
<rect width="11" height="11" x="-4" y="90" data-level="0" rx="2" ry="2" class="o"></rect>
</g>
<g transform="translate(336, 0)">
<rect width="11" height="11" x="-5" y="0" data-level="0" rx="2" ry="2" class="o"></rect>
<rect width="11" height="11" x="-5" y="15" data-level="0" rx="2" ry="2" class="o"></rect>
<rect width="11" height="11" x="-5" y="30" data-level="0" rx="2" ry="2" class="o"></rect>
<rect width="11" height="11" x="-5" y="45" data-level="0" rx="2" ry="2" class="o"></rect>
<rect width="11" height="11" x="-5" y="60" data-level="0" rx="2" ry="2" class="o"></rect>
<rect width="11" height="11" x="-5" y="75" data-level="0" rx="2" ry="2" class="o"></rect>
<rect width="11" height="11" x="-5" y="90" data-level="0" rx="2" ry="2" class="o"></rect>
</g>
<g transform="translate(352, 0)">
<rect width="11" height="11" x="-6" y="0" data-level="0" rx="2" ry="2" class="o"></rect>
<rect width="11" height="11" x="-6" y="15" data-level="0" rx="2" ry="2" class="o"></rect>
<rect width="11" height="11" x="-6" y="30" data-level="0" rx="2" ry="2" class="o"></rect>
<rect width="11" height="11" x="-6" y="45" data-level="0" rx="2" ry="2" class="o"></rect>
<rect width="11" height="11" x="-6" y="60" data-level="0" rx="2" ry="2" class="o"></rect>
<rect width="11" height="11" x="-6" y="75" data-level="0" rx="2" ry="2" class="o"></rect>
<rect width="11" height="11" x="-6" y="90" data-level="0" rx="2" ry="2" class="o"></rect>
</g>
<g transform="translate(368, 0)">
<rect width="11" height="11" x="-7" y="0" data-level="0" rx="2" ry="2" class="o"></rect>
<rect width="11" height="11" x="-7" y="15" data-level="0" rx="2" ry="2" class="o"></rect>
<rect width="11" height="11" x="-7" y="30" data-level="0" rx="2" ry="2" class="o"></rect>
<rect width="11" height="11" x="-7" y="45" data-level="0" rx="2" ry="2" class="o"></rect>
<rect width="11" height="11" x="-7" y="60" data-level="0" rx="2" ry="2" class="o"></rect>
<rect width="11" height="11" x="-7" y="75" data-level="0" rx="2" ry="2" class="o"></rect>
<rect width="11" height="11" x="-7" y="90" data-level="0" rx="2" ry="2" class="o"></rect>
</g>
<g transform="translate(384, 0)">
<rect width="11" height="11" x="-8" y="0" data-level="0" rx="2" ry="2" class="o"></rect>
<rect width="11" height="11" x="-8" y="15" data-level="0" rx="2" ry="2" class="o"></rect>
<rect width="11" height="11" x="-8" y="30" data-level="0" rx="2" ry="2" class="o"></rect>
<rect width="11" height="11" x="-8" y="45" data-level="0" rx="2" ry="2" class="o"></rect>
<rect width="11" height="11" x="-8" y="60" data-level="0" rx="2" ry="2" class="o"></rect>
<rect width="11" height="11" x="-8" y="75" data-level="0" rx="2" ry="2" class="o"></rect>
<rect width="11" height="11" x="-8" y="90" data-level="0" rx="2" ry="2" class="o"></rect>
</g>
<g transform="translate(400, 0)">
<rect width="11" height="11" x="-9" y="0" data-level="0" rx="2" ry="2" class="o"></rect>
<rect width="11" height="11" x="-9" y="15" data-level="0" rx="2" ry="2" class="o"></rect>
<rect width="11" height="11" x="-9" y="30" data-level="0" rx="2" ry="2" class="o"></rect>
<rect width="11" height="11" x="-9" y="45" data-level="0" rx="2" ry="2" class="o"></rect>
<rect width="11" height="11" x="-9" y="60" data-level="0" rx="2" ry="2" class="o"></rect>
<rect width="11" height="11" x="-9" y="75" data-level="0" rx="2" ry="2" class="o"></rect>
<rect width="11" height="11" x="-9" y="90" data-level="0" rx="2" ry="2" class="o"></rect>
</g>
<g transform="translate(416, 0)">
<rect width="11" height="11" x="-10" y="0" data-level="0" rx="2" ry="2" class="o"></rect>
<rect width="11" height="11" x="-10" y="15" data-level="0" rx="2" ry="2" class="o"></rect>
<rect width="11" height="11" x="-10" y="30" data-level="0" rx="2" ry="2" class="o"></rect>
<rect width="11" height="11" x="-10" y="45" data-level="0" rx="2" ry="2" class="o"></rect>
<rect width="11" height="11" x="-10" y="60" data-level="0" rx="2" ry="2" class="o"></rect>
<rect width="11" height="11" x="-10" y="75" data-level="0" rx="2" ry="2" class="o"></rect>
<rect width="11" height="11" x="-10" y="90" data-level="0" rx="2" ry="2" class="o"></rect>
</g>
<g transform="translate(432, 0)">
<rect width="11" height="11" x="-11" y="0" data-level="0" rx="2" ry="2" class="o"></rect>
<rect width="11" height="11" x="-11" y="15" data-level="0" rx="2" ry="2" class="o"></rect>
<rect width="11" height="11" x="-11" y="30" data-level="0" rx="2" ry="2" class="o"></rect>
<rect width="11" height="11" x="-11" y="45" data-level="0" rx="2" ry="2" class="o"></rect>
<rect width="11" height="11" x="-11" y="60" data-level="0" rx="2" ry="2" class="o"></rect>
<rect width="11" height="11" x="-11" y="75" data-level="0" rx="2" ry="2" class="o"></rect>
<rect width="11" height="11" x="-11" y="90" data-level="0" rx="2" ry="2" class="o"></rect>
</g>
<g transform="translate(448, 0)">
<rect width="11" height="11" x="-12" y="0" data-level="0" rx="2" ry="2" class="o"></rect>
<rect width="11" height="11" x="-12" y="15" data-level="0" rx="2" ry="2" class="o"></rect>
<rect width="11" height="11" x="-12" y="30" data-level="0" rx="2" ry="2" class="o"></rect>
<rect width="11" height="11" x="-12" y="45" data-level="0" rx="2" ry="2" class="o"></rect>
<rect width="11" height="11" x="-12" y="60" data-level="0" rx="2" ry="2" class="o"></rect>
<rect width="11" height="11" x="-12" y="75" data-level="0" rx="2" ry="2" class="o"></rect>
<rect width="11" height="11" x="-12" y="90" data-level="0" rx="2" ry="2" class="o"></rect>
</g>
<g transform="translate(464, 0)">
<rect width="11" height="11" x="-13" y="0" data-level="0" rx="2" ry="2" class="o"></rect>
<rect width="11" height="11" x="-13" y="15" data-level="0" rx="2" ry="2" class="o"></rect>
<rect width="11" height="11" x="-13" y="30" data-level="0" rx="2" ry="2" class="o"></rect>
<rect width="11" height="11" x="-13" y="45" data-level="0" rx="2" ry="2" class="o"></rect>
<rect width="11" height="11" x="-13" y="60" data-level="0" rx="2" ry="2" class="o"></rect>
<rect width="11" height="11" x="-13" y="75" data-level="0" rx="2" ry="2" class="o"></rect>
<rect width="11" height="11" x="-13" y="90" data-level="0" rx="2" ry="2" class="o"></rect>
</g>
<g transform="translate(480, 0)">
<rect width="11" height="11" x="-14" y="0" data-level="0" rx="2" ry="2" class="o"></rect>
<rect width="11" height="11" x="-14" y="15" data-level="0" rx="2" ry="2" class="o"></rect>
<rect width="11" height="11" x="-14" y="30" data-level="0" rx="2" ry="2" class="o"></rect>
<rect width="11" height="11" x="-14" y="45" data-level="0" rx="2" ry="2" class="o"></rect>
<rect width="11" height="11" x="-14" y="60" data-level="0" rx="2" ry="2" class="o"></rect>
<rect width="11" height="11" x="-14" y="75" data-level="0" rx="2" ry="2" class="o"></rect>
<rect width="11" height="11" x="-14" y="90" data-level="0" rx="2" ry="2" class="o"></rect>
</g>
<g transform="translate(496, 0)">
<rect width="11" height="11" x="-15" y="0" data-level="0" rx="2" ry="2" class="o"></rect>
<rect width="11" height="11" x="-15" y="15" data-level="0" rx="2" ry="2" class="o"></rect>
<rect width="11" height="11" x="-15" y="30" data-level="0" rx="2" ry="2" class="o"></rect>
<rect width="11" height="11" x="-15" y="45" data-level="0" rx="2" ry="2" class="o"></rect>
<rect width="11" height="11" x="-15" y="60" data-level="0" rx="2" ry="2" class="o"></rect>
<rect width="11" height="11" x="-15" y="75" data-level="0" rx="2" ry="2" class="o"></rect>
<rect width="11" height="11" x="-15" y="90" data-level="0" rx="2" ry="2" class="o"></rect>
</g>
<g transform="translate(512, 0)">
<rect width="11" height="11" x="-16" y="0" data-level="0" rx="2" ry="2" class="o"></rect>
<rect width="11" height="11" x="-16" y="15" data-level="0" rx="2" ry="2" class="o"></rect>
<rect width="11" height="11" x="-16" y="30" data-level="0" rx="2" ry="2" class="o"></rect>
<rect width="11" height="11" x="-16" y="45" data-level="0" rx="2" ry="2" class="o"></rect>
<rect width="11" height="11" x="-16" y="60" data-level="0" rx="2" ry="2" class="o"></rect>
<rect width="11" height="11" x="-16" y="75" data-level="0" rx="2" ry="2" class="o"></rect>
<rect width="11" height="11" x="-16" y="90" data-level="0" rx="2" ry="2" class="o"></rect>
</g>
<g transform="translate(528, 0)">
<rect width="11" height="11" x="-17" y="0" data-level="0" rx="2" ry="2" class="o"></rect>
<rect width="11" height="11" x="-17" y="15" data-level="0" rx="2" ry="2" class="o"></rect>
<rect width="11" height="11" x="-17" y="30" data-level="0" rx="2" ry="2" class="o"></rect>
<rect width="11" height="11" x="-17" y="45" data-level="0" rx="2" ry="2" class="o"></rect>
<rect width="11" height="11" x="-17" y="60" data-level="0" rx="2" ry="2" class="o"></rect>
<rect width="11" height="11" x="-17" y="75" data-level="0" rx="2" ry="2" class="o"></rect>
<rect width="11" height="11" x="-17" y="90" data-level="0" rx="2" ry="2" class="o"></rect>
</g>
<g transform="translate(544, 0)">
<rect width="11" height="11" x="-18" y="0" data-level="0" rx="2" ry="2" class="o"></rect>
<rect width="11" height="11" x="-18" y="15" data-level="0" rx="2" ry="2" class="o"></rect>
<rect width="11" height="11" x="-18" y="30" data-level="0" rx="2" ry="2" class="o"></rect>
<rect width="11" height="11" x="-18" y="45" data-level="0" rx="2" ry="2" class="o"></rect>
<rect width="11" height="11" x="-18" y="60" data-level="0" rx="2" ry="2" class="o"></rect>
<rect width="11" height="11" x="-18" y="75" data-level="0" rx="2" ry="2" class="o"></rect>
<rect width="11" height="11" x="-18" y="90" data-level="0" rx="2" ry="2" class="o"></rect>
</g>
<g transform="translate(560, 0)">
<rect width="11" height="11" x="-19" y="0" data-level="0" rx="2" ry="2" class="o"></rect>
<rect width="11" height="11" x="-19" y="15" data-level="0" rx="2" ry="2" class="o"></rect>
<rect width="11" height="11" x="-19" y="30" data-level="0" rx="2" ry="2" class="o"></rect>
<rect width="11" height="11" x="-19" y="45" data-level="0" rx="2" ry="2" class="o"></rect>
<rect width="11" height="11" x="-19" y="60" data-level="0" rx="2" ry="2" class="o"></rect>
<rect width="11" height="11" x="-19" y="75" data-level="0" rx="2" ry="2" class="o"></rect>
<rect width="11" height="11" x="-19" y="90" data-level="0" rx="2" ry="2" class="o"></rect>
</g>
<g transform="translate(576, 0)">
<rect width="11" height="11" x="-20" y="0" data-level="0" rx="2" ry="2" class="o"></rect>
<rect width="11" height="11" x="-20" y="15" data-level="0" rx="2" ry="2" class="o"></rect>
<rect width="11" height="11" x="-20" y="30" data-level="0" rx="2" ry="2" class="o"></rect>
<rect width="11" height="11" x="-20" y="45" data-level="0" rx="2" ry="2" class="o"></rect>
<rect width="11" height="11" x="-20" y="60" data-level="0" rx="2" ry="2" class="o"></rect>
<rect width="11" height="11" x="-20" y="75" data-level="0" rx="2" ry="2" class="o"></rect>
<rect width="11" height="11" x="-20" y="90" data-level="0" rx="2" ry="2" class="o"></rect>
</g>
<g transform="translate(592, 0)">
<rect width="11" height="11" x="-21" y="0" data-level="0" rx="2" ry="2" class="o"></rect>
<rect width="11" height="11" x="-21" y="15" data-level="0" rx="2" ry="2" class="o"></rect>
<rect width="11" height="11" x="-21" y="30" data-level="0" rx="2" ry="2" class="o"></rect>
<rect width="11" height="11" x="-21" y="45" data-level="0" rx="2" ry="2" class="o"></rect>
<rect width="11" height="11" x="-21" y="60" data-level="0" rx="2" ry="2" class="o"></rect>
<rect width="11" height="11" x="-21" y="75" data-level="0" rx="2" ry="2" class="o"></rect>
<rect width="11" height="11" x="-21" y="90" data-level="0" rx="2" ry="2" class="o"></rect>
</g>
<g transform="translate(608, 0)">
<rect width="11" height="11" x="-22" y="0" data-level="0" rx="2" ry="2" class="o"></rect>
<rect width="11" height="11" x="-22" y="15" data-level="0" rx="2" ry="2" class="o"></rect>
<rect width="11" height="11" x="-22" y="30" data-level="0" rx="2" ry="2" class="o"></rect>
<rect width="11" height="11" x="-22" y="45" data-level="0" rx="2" ry="2" class="o"></rect>
<rect width="11" height="11" x="-22" y="60" data-level="0" rx="2" ry="2" class="o"></rect>
<rect width="11" height="11" x="-22" y="75" data-level="0" rx="2" ry="2" class="o"></rect>
<rect width="11" height="11" x="-22" y="90" data-level="0" rx="2" ry="2" class="o"></rect>
</g>
<g transform="translate(624, 0)">
<rect width="11" height="11" x="-23" y="0" data-level="0" rx="2" ry="2" class="o"></rect>
<rect width="11" height="11" x="-23" y="15" data-level="0" rx="2" ry="2" class="o"></rect>
<rect width="11" height="11" x="-23" y="30" data-level="0" rx="2" ry="2" class="o"></rect>
<rect width="11" height="11" x="-23" y="45" data-level="0" rx="2" ry="2" class="o"></rect>
<rect width="11" height="11" x="-23" y="60" data-level="0" rx="2" ry="2" class="o"></rect>
<rect width="11" height="11" x="-23" y="75" data-level="0" rx="2" ry="2" class="o"></rect>
<rect width="11" height="11" x="-23" y="90" data-level="0" rx="2" ry="2" class="o"></rect>
</g>
<g transform="translate(640, 0)">
<rect width="11" height="11" x="-24" y="0" data-level="0" rx="2" ry="2" class="o"></rect>
<rect width="11" height="11" x="-24" y="15" data-level="0" rx="2" ry="2" class="o"></rect>
<rect width="11" height="11" x="-24" y="30" data-level="0" rx="2" ry="2" class="o"></rect>
<rect width="11" height="11" x="-24" y="45" data-level="0" rx="2" ry="2" class="o"></rect>
<rect width="11" height="11" x="-24" y="60" data-level="0" rx="2" ry="2" class="o"></rect>
<rect width="11" height="11" x="-24" y="75" data-level="0" rx="2" ry="2" class="o"></rect>
<rect width="11" height="11" x="-24" y="90" data-level="0" rx="2" ry="2" class="o"></rect>
</g>
<g transform="translate(656, 0)">
<rect width="11" height="11" x="-25" y="0" data-level="0" rx="2" ry="2" class="o"></rect>
<rect width="11" height="11" x="-25" y="15" data-level="0" rx="2" ry="2" class="o"></rect>
<rect width="11" height="11" x="-25" y="30" data-level="0" rx="2" ry="2" class="o"></rect>
<rect width="11" height="11" x="-25" y="45" data-level="0" rx="2" ry="2" class="o"></rect>
<rect width="11" height="11" x="-25" y="60" data-level="0" rx="2" ry="2" class="o"></rect>
<rect width="11" height="11" x="-25" y="75" data-level="0" rx="2" ry="2" class="o"></rect>
<rect width="11" height="11" x="-25" y="90" data-level="0" rx="2" ry="2" class="o"></rect>
</g>
<g transform="translate(672, 0)">
<rect width="11" height="11" x="-26" y="0" data-level="0" rx="2" ry="2" class="o"></rect>
<rect width="11" height="11" x="-26" y="15" data-level="0" rx="2" ry="2" class="o"></rect>
<rect width="11" height="11" x="-26" y="30" data-level="0" rx="2" ry="2" class="o"></rect>
<rect width="11" height="11" x="-26" y="45" data-level="0" rx="2" ry="2" class="o"></rect>
<rect width="11" height="11" x="-26" y="60" data-level="0" rx="2" ry="2" class="o"></rect>
<rect width="11" height="11" x="-26" y="75" data-level="0" rx="2" ry="2" class="o"></rect>
<rect width="11" height="11" x="-26" y="90" data-level="0" rx="2" ry="2" class="o"></rect>
</g>
<g transform="translate(688, 0)">
<rect width="11" height="11" x="-27" y="0" data-level="0" rx="2" ry="2" class="o"></rect>
<rect width="11" height="11" x="-27" y="15" data-level="0" rx="2" ry="2" class="o"></rect>
<rect width="11" height="11" x="-27" y="30" data-level="0" rx="2" ry="2" class="o"></rect>
<rect width="11" height="11" x="-27" y="45" data-level="0" rx="2" ry="2" class="o"></rect>
<rect width="11" height="11" x="-27" y="60" data-level="0" rx="2" ry="2" class="o"></rect>
<rect width="11" height="11" x="-27" y="75" data-level="0" rx="2" ry="2" class="o"></rect>
<rect width="11" height="11" x="-27" y="90" data-level="0" rx="2" ry="2" class="o"></rect>
</g>
<g transform="translate(704, 0)">
<rect width="11" height="11" x="-28" y="0" data-level="0" rx="2" ry="2" class="o"></rect>
<rect width="11" height="11" x="-28" y="15" data-level="0" rx="2" ry="2" class="o"></rect>
<rect width="11" height="11" x="-28" y="30" data-level="0" rx="2" ry="2" class="o"></rect>
<rect width="11" height="11" x="-28" y="45" data-level="0" rx="2" ry="2" class="o"></rect>
<rect width="11" height="11" x="-28" y="60" data-level="0" rx="2" ry="2" class="o"></rect>
<rect width="11" height="11" x="-28" y="75" data-level="0" rx="2" ry="2" class="o"></rect>
<rect width="11" height="11" x="-28" y="90" data-level="0" rx="2" ry="2" class="o"></rect>
</g>
<g transform="translate(720, 0)">
<rect width="11" height="11" x="-29" y="0" data-level="0" rx="2" ry="2" class="o"></rect>
<rect width="11" height="11" x="-29" y="15" data-level="0" rx="2" ry="2" class="o"></rect>
<rect width="11" height="11" x="-29" y="30" data-level="0" rx="2" ry="2" class="o"></rect>
<rect width="11" height="11" x="-29" y="45" data-level="0" rx="2" ry="2" class="o"></rect>
<rect width="11" height="11" x="-29" y="60" data-level="0" rx="2" ry="2" class="o"></rect>
<rect width="11" height="11" x="-29" y="75" data-level="0" rx="2" ry="2" class="o"></rect>
<rect width="11" height="11" x="-29" y="90" data-level="0" rx="2" ry="2" class="o"></rect>
</g>
<g transform="translate(736, 0)">
<rect width="11" height="11" x="-30" y="0" data-level="0" rx="2" ry="2" class="o"></rect>
<rect width="11" height="11" x="-30" y="15" data-level="0" rx="2" ry="2" class="o"></rect>
<rect width="11" height="11" x="-30" y="30" data-level="0" rx="2" ry="2" class="o"></rect>
<rect width="11" height="11" x="-30" y="45" data-level="0" rx="2" ry="2" class="o"></rect>
<rect width="11" height="11" x="-30" y="60" data-level="0" rx="2" ry="2" class="o"></rect>
<rect width="11" height="11" x="-30" y="75" data-level="0" rx="2" ry="2" class="o"></rect>
<rect width="11" height="11" x="-30" y="90" data-level="0" rx="2" ry="2" class="o"></rect>
</g>
<g transform="translate(752, 0)">
<rect width="11" height="11" x="-31" y="0" data-level="0" rx="2" ry="2" class="o"></rect>
<rect width="11" height="11" x="-31" y="15" data-level="0" rx="2" ry="2" class="o"></rect>
<rect width="11" height="11" x="-31" y="30" data-level="0" rx="2" ry="2" class="o"></rect>
<rect width="11" height="11" x="-31" y="45" data-level="0" rx="2" ry="2" class="o"></rect>
<rect width="11" height="11" x="-31" y="60" data-level="0" rx="2" ry="2" class="o"></rect>
<rect width="11" height="11" x="-31" y="75" data-level="0" rx="2" ry="2" class="o"></rect>
<rect width="11" height="11" x="-31" y="90" data-level="0" rx="2" ry="2" class="o"></rect>
</g>
<g transform="translate(768, 0)">
<rect width="11" height="11" x="-32" y="0" data-level="0" rx="2" ry="2" class="o"></rect>
<rect width="11" height="11" x="-32" y="15" data-level="0" rx="2" ry="2" class="o"></rect>
<rect width="11" height="11" x="-32" y="30" data-level="0" rx="2" ry="2" class="o"></rect>
<rect width="11" height="11" x="-32" y="45" data-level="0" rx="2" ry="2" class="o"></rect>
<rect width="11" height="11" x="-32" y="60" data-level="0" rx="2" ry="2" class="o"></rect>
<rect width="11" height="11" x="-32" y="75" data-level="0" rx="2" ry="2" class="o"></rect>
<rect width="11" height="11" x="-32" y="90" data-level="0" rx="2" ry="2" class="o"></rect>
</g>
<g transform="translate(784, 0)">
<rect width="11" height="11" x="-33" y="0" data-level="0" rx="2" ry="2" class="o"></rect>
<rect width="11" height="11" x="-33" y="15" data-level="0" rx="2" ry="2" class="o"></rect>
<rect width="11" height="11" x="-33" y="30" data-level="0" rx="2" ry="2" class="o"></rect>
<rect width="11" height="11" x="-33" y="45" data-level="0" rx="2" ry="2" class="o"></rect>
<rect width="11" height="11" x="-33" y="60" data-level="0" rx="2" ry="2" class="o"></rect>
<rect width="11" height="11" x="-33" y="75" data-level="0" rx="2" ry="2" class="o"></rect>
<rect width="11" height="11" x="-33" y="90" data-level="0" rx="2" ry="2" class="o"></rect>
</g>
<g transform="translate(800, 0)">
<rect width="11" height="11" x="-34" y="0" data-level="0" rx="2" ry="2" class="o"></rect>
<rect width="11" height="11" x="-34" y="15" data-level="0" rx="2" ry="2" class="o"></rect>
<rect width="11" height="11" x="-34" y="30" data-level="0" rx="2" ry="2" class="o"></rect>
<rect width="11" height="11" x="-34" y="45" data-level="0" rx="2" ry="2" class="o"></rect>
<rect width="11" height="11" x="-34" y="60" data-level="0" rx="2" ry="2" class="o"></rect>
<rect width="11" height="11" x="-34" y="75" data-level="0" rx="2" ry="2" class="o"></rect>
<rect width="11" height="11" x="-34" y="90" data-level="0" rx="2" ry="2" class="o"></rect>
</g>
<g transform="translate(816, 0)">
<rect width="11" height="11" x="-35" y="0" data-level="0" rx="2" ry="2" class="o"></rect>
<rect width="11" height="11" x="-35" y="15" data-level="0" rx="2" ry="2" class="o"></rect>
<rect width="11" height="11" x="-35" y="30" data-level="0" rx="2" ry="2" class="o"></rect>
<rect width="11" height="11" x="-35" y="45" data-level="0" rx="2" ry="2" class="o"></rect>
<rect width="11" height="11" x="-35" y="60" data-level="0" rx="2" ry="2" class="o"></rect>
<rect width="11" height="11" x="-35" y="75" data-level="0" rx="2" ry="2" class="o"></rect>
<rect width="11" height="11" x="-35" y="90" data-level="0" rx="2" ry="2" class="o"></rect>
</g>
<g transform="translate(832, 0)">
<rect width="11" height="11" x="-36" y="0" data-level="0" rx="2" ry="2" class="o"></rect>
<rect width="11" height="11" x="-36" y="15" data-level="0" rx="2" ry="2" class="o"></rect>
<rect width="11" height="11" x="-36" y="30" data-level="0" rx="2" ry="2" class="o"></rect>
<rect width="11" height="11" x="-36" y="45" data-level="0" rx="2" ry="2" class="o"></rect>
<rect width="11" height="11" x="-36" y="60" data-level="0" rx="2" ry="2" class="o"></rect>
<rect width="11" height="11" x="-36" y="75" data-level="0" rx="2" ry="2" class="o"></rect>
<rect width="11" height="11" x="-36" y="90" data-level="0" rx="2" ry="2" class="o"></rect>
</g>
</g><a href="https://github.com/jasineri/gitartwork"><text x="24" y="139" font-size="0.6em" fill="blue">Get your own gitartwork on jasineri/gitartwork</text></a></svg>
